@startuml

skinparam class {
    BackgroundColor #white
	BackgroundColor<<wip>> LightGoldenRodYellow
	BackgroundColor<<tbd>> Khaki
}

package com.epam.edp.codebase {

  class Codebase {
    -- metadata --
        String name
    -- spec --
        CodebaseType type
        String lang
        String description
        String framework
        String buildTool
        Strategy strategy
        Repository repository
        Database database
        String testReportFramework
        String gitServer
        String jiraServer
        String gitUrlPath
        String jenkinsSlave
        String jobProvisioning
        String deploymentScript
        String ciTool
        Versioning versioning
    -- status --
        Boolean available
        Date lastTimeUpdated
        String status
        String username
        ActionType action
        Result result
        String detailedMessage
        String value
  }

  Codebase -> Strategy : strategy
  enum Strategy {
    CREATE
    CLONE
  }

  Codebase --> CodebaseType : type
  enum CodebaseType {
    APPLICATION
    AUTOTESTS
    LIBRARY
  }

  Versioning -> VersioningType : versioningType
    enum VersioningType {
      EDP
      DEFAULT
  }

  Codebase "1" -r-* "0..1" Repository : internal structure
  class Repository {
    String url
  }

  Codebase "1" --* "1" Versioning : internal structure
    class Versioning {
     VersioningType type
     String startFrom
  }

  Codebase "1" --* "1..*" CodebaseBranch : codebaseName, owner ref
  class CodebaseBranch {
    -- metadata --
        String name
    -- spec --
        String codebaseName
        String branchName
        String fromCommit
        String version
        String build
        Boolean release
    -- status --
        Date lastTimeUpdated
        String status
        []String versionHistory
        String username
        ActionType action
        Result result
        String detailedMessage
        String value
  }

  CodebaseBranch "1" --o "0..1" CodebaseImageStream : creates, owner ref
  class CodebaseImageStream {
    -- metadata --
        String name
    -- spec --
        String imageName
        []Tag tags
    -- status --
        <color red>String version</color>
        <color red>String url</color>
  }

  CodebaseImageStream "1" --* "0..*" Tag : internal structure
  class Tag {
    String name
  }

  Codebase "0..*" o-- "1" GitServer : gitServer
  class GitServer {
    -- metadata --
        String name
    -- spec --
        String gitHost
        String gitUser
        String httpsPort
        String sshPort
        String nameSshKeySecret
    -- status --
        Date lastTimeUpdated
        String status
        String username
        ActionType action
        Result result
        String detailedMessage
        String value
  }

  GitServer "1" --* "1" GitServerSecret : nameSshKeySecret
  class GitServerSecret <Secret> {
    -- metadata --
      String name
    -- data --
      String id_rsa
      String id_rsa.pub
      String username
  }

  GitRepository <-- GitServer : owner ref
  class GitRepository <<tbd>> {
    -- metadata --
        String name
    -- spec --
    -- status --
        Boolean available
  }

  Codebase "0..*" o--- "1" JiraServer : jiraServer
  class JiraServer {
    -- metadata --
    String name
    -- spec --
    String apiUrl
    String rootUrl
    String credentialName
    -- status --
    Date lastTimeUpdated
    Boolean available
  }

  Codebase "1" ---* "0..*" JiraFixVersion : codebaseName
  class JiraFixVersion {
    -- metadata --
    String name
    -- spec --
    String []commits
    String []tickets
    String codebaseName
    -- status --
    Date lastTimeUpdated
    String detailedMessage
    Boolean released
    Boolean archived
    String status
    }

  JiraServer "1" --* "1" JiraUserServerSecret : credentialName
  class JiraUserServerSecret <Secret> {
    -- metadata --
       String name
    -- spec --
       String password
       String username
  }
}

class ImageStreamTag {
    -- metadata --
    String name
    -- spec --
    String codebaseImageStreamName
    String tag
}

class GitTag {
    -- metadata --
    String name
    -- spec --
    String codebase
    String branch
    String tag
}

class Service {
    -- metadata --
    String name
    -- spec --
    String version
    String description
    String url
    String icon
}

class EdpComponent <<tbd>> {
}

GitServer --> EdpComponent : creates, owner
JiraServer --> EdpComponent : creates, owner
Codebase -u-> ImageStream : creates (s2i, Openshift)
Codebase "1" -u-> "1" JenkinsFolder : creates, owner

legend
|Type | Field | Status |
|<back:LightGoldenRodYellow>    </back> | <color brown>String name</color>   |Work In Progress|
|<back:white>    </back>| String name  |Implemented |
|<back:Khaki>    </back>| <color red>String name</color>|TBD |
endlegend


@enduml
